<svg width="13" height="13" viewBox="0 0 13 13" fill="none" xmlns="http://www.w3.org/2000/svg">
<path fill-rule="evenodd" clip-rule="evenodd" d="M11.3648 7.93082V8.09434C11.3648 8.33962 11.283 8.50315 11.1195 8.66667L8.66667 11.1195C8.50315 11.283 8.33962 11.3648 8.09434 11.3648H7.93082L3.84277 10.5472C3.59748 10.5472 3.3522 10.3019 3.27044 10.0566L0 1.06289L0.245283 0.81761L4.98742 5.55975C4.90566 5.72327 4.8239 5.88679 4.8239 6.05031C4.8239 6.7044 5.31447 7.27673 6.05031 7.27673C6.78616 7.27673 7.27673 6.7044 7.27673 6.05031C7.27673 5.39623 6.7044 4.8239 6.05031 4.8239C5.88679 4.8239 5.72327 4.90566 5.55975 4.98742L0.81761 0.245283L1.06289 0L10.0566 3.27044C10.3019 3.3522 10.4654 3.59748 10.5472 3.84277L11.3648 7.93082ZM11.6101 9.15724C11.7736 8.99372 11.9371 8.91196 12.1824 8.91196C12.673 8.91196 13 9.32077 13 9.72957C13 9.97485 12.9183 10.1384 12.7547 10.3019L10.3019 12.7547C10.1384 12.9183 9.97485 13 9.72957 13C9.32077 13 8.91196 12.673 8.91196 12.1824C8.91196 11.9371 8.99372 11.7736 9.15724 11.6101L11.6101 9.15724Z" fill="black"/>
</svg>
