<svg width="13" height="13" viewBox="0 0 13 13" fill="none" xmlns="http://www.w3.org/2000/svg">
<path fill-rule="evenodd" clip-rule="evenodd" d="M12.1333 1.73333H11.2666V0.866667C11.2666 0.39 10.8766 0 10.4 0C9.92331 0 9.53331 0.39 9.53331 0.866667V1.73333H8.66665C8.18998 1.73333 7.79998 2.12333 7.79998 2.6C7.79998 3.07667 8.18998 3.46667 8.66665 3.46667H9.53331V4.33333C9.53331 4.81 9.92331 5.2 10.4 5.2C10.8766 5.2 11.2666 4.81 11.2666 4.33333V3.46667H12.1333C12.61 3.46667 13 3.07667 13 2.6C13 2.12333 12.61 1.73333 12.1333 1.73333ZM3.46666 5.63335C3.46666 5.87602 3.65733 6.06669 3.9 6.06669H5.2V9.10002C5.2 9.34269 5.39066 9.53335 5.63333 9.53335C5.876 9.53335 6.06666 9.34269 6.06666 9.10002V6.06669H7.36666C7.60933 6.06669 7.8 5.87602 7.8 5.63335C7.8 5.39069 7.60933 5.20002 7.36666 5.20002H3.9C3.65733 5.20002 3.46666 5.39069 3.46666 5.63335ZM9.53333 6.93336C9.53333 6.45669 9.92333 6.06669 10.4 6.06669C10.8767 6.06669 11.2667 6.45669 11.2667 6.93336V12.1334C11.2667 12.61 10.8767 13 10.4 13H0.866667C0.39 13 0 12.61 0 12.1334V2.60002C0 2.12336 0.39 1.73336 0.866667 1.73336H6.06667C6.54333 1.73336 6.93333 2.12336 6.93333 2.60002C6.93333 3.07669 6.54333 3.46669 6.06667 3.46669H1.73333V11.2667H9.53333V6.93336Z" fill="black"/>
</svg>
